%
M48
M72
T01C0.01181
T02C0.03150
T03C0.03543
T04C0.03937
T05C0.06299
T06C0.12598
%
T01
X407999Y186856
X410459Y184396
X410459Y189317
X407999Y191778
X410459Y194238
X407999Y196699
X410459Y199159
X443678Y186856
X450528Y192201
X478087Y175911
X480587Y173411
X478087Y170911
X480587Y168411
X478087Y165911
X480587Y163411
X478087Y160911
X488087Y158411
X513087Y143411
X514337Y160911
X516837Y163411
X514337Y165911
X516837Y168411
X514337Y170911
X516837Y173411
X514337Y175911
X516837Y178411
X524337Y193411
X513087Y215911
X505587Y215911
X488087Y230911
X480587Y235911
X478087Y233411
X478087Y238411
X480587Y240911
X478087Y243411
X480587Y245911
X478087Y248411
X480587Y250911
X450528Y264701
X443678Y259445
X409229Y261906
X406768Y264366
X409229Y266827
X406768Y269287
X409229Y271748
X406768Y259445
X409229Y256984
X478087Y305911
X480587Y308411
X478087Y310911
X480587Y313411
X478087Y315911
X480587Y318411
X478087Y320911
X480587Y323411
X488087Y303411
X509337Y288411
X513087Y288411
X514337Y305911
X516837Y308411
X514337Y310911
X516837Y313411
X514337Y315911
X516837Y318411
X514337Y320911
X516837Y323411
X524337Y338411
X513087Y359661
X509337Y359661
X505587Y359661
X488087Y374661
X480587Y379661
X478087Y377161
X478087Y382161
X480587Y384661
X478087Y387161
X480587Y389661
X478087Y392161
X480587Y394661
X449554Y407821
X443678Y403392
X410459Y402161
X407999Y404622
X410459Y407083
X407999Y409543
X410459Y412004
X407999Y414465
X410459Y416925
X409229Y344337
X406768Y341876
X409229Y339415
X406768Y336955
X409229Y334494
X406768Y332033
X409229Y329573
X443678Y332033
X450528Y337201
X514337Y377161
X516837Y379661
X514337Y382161
X516837Y384661
X514337Y387161
X516837Y389661
X514337Y392161
X516837Y394661
X535587Y397161
X483087Y279661
X485587Y277161
X524337Y265911
X516837Y250911
X514337Y248411
X516837Y245911
X514337Y243411
X516837Y240911
X514337Y238411
X516837Y235911
X514337Y233411
X480587Y178411
T02
X403638Y179661
X383638Y179661
X363796Y179661
X343796Y179661
X323953Y179661
X303953Y179661
X284111Y179661
X264111Y179661
X244268Y179661
X224268Y179661
X204426Y179661
X184426Y179661
X164583Y179661
X144583Y179661
X124741Y179661
X104741Y179661
X104741Y159661
X104741Y149661
X104741Y139661
X124741Y139661
X124741Y149661
X124741Y159661
X144583Y159661
X144583Y149661
X144583Y139661
X164583Y139661
X164583Y149661
X164583Y159661
X184426Y159661
X184426Y149661
X184426Y139661
X204426Y139661
X204426Y149661
X204426Y159661
X224268Y159661
X224268Y149661
X224268Y139661
X244268Y139661
X244268Y149661
X244268Y159661
X264111Y159661
X264111Y149661
X264111Y139661
X284111Y139661
X284111Y149661
X284111Y159661
X303953Y159661
X303953Y149661
X303953Y139661
X323953Y139661
X323953Y149661
X323953Y159661
X343796Y159661
X343796Y149661
X343796Y139661
X363796Y139661
X363796Y149661
X363796Y159661
X383638Y159661
X383638Y149661
X383638Y139661
X403638Y139661
X403638Y149661
X403638Y159661
X403638Y212161
X403638Y222161
X403638Y232161
X383638Y232161
X383638Y222161
X383638Y212161
X363796Y212161
X363796Y222161
X363796Y232161
X343796Y232161
X343796Y222161
X343796Y212161
X323953Y212161
X323953Y222161
X323953Y232161
X303953Y232161
X303953Y222161
X303953Y212161
X284111Y212161
X284111Y222161
X284111Y232161
X264111Y232161
X264111Y222161
X264111Y212161
X244268Y212161
X244268Y222161
X244268Y232161
X224268Y232161
X224268Y222161
X224268Y212161
X204426Y212161
X204426Y222161
X204426Y232161
X184426Y232161
X184426Y222161
X184426Y212161
X164583Y212161
X164583Y222161
X164583Y232161
X144583Y232161
X144583Y222161
X144583Y212161
X124741Y212161
X124741Y222161
X124741Y232161
X104741Y232161
X104741Y222161
X104741Y212161
X104741Y252161
X124741Y252161
X144583Y252161
X164583Y252161
X184426Y252161
X204426Y252161
X224268Y252161
X244268Y252161
X264111Y252161
X284111Y252161
X303953Y252161
X323953Y252161
X343796Y252161
X363796Y252161
X383638Y252161
X403638Y252161
X403638Y284661
X403638Y294661
X403638Y304661
X383638Y304661
X383638Y294661
X383638Y284661
X363796Y284661
X363796Y294661
X363796Y304661
X343796Y304661
X343796Y294661
X343796Y284661
X323953Y284661
X323953Y294661
X323953Y304661
X303953Y304661
X303953Y294661
X303953Y284661
X284111Y284661
X284111Y294661
X284111Y304661
X264111Y304661
X264111Y294661
X264111Y284661
X244268Y284661
X244268Y294661
X244268Y304661
X224268Y304661
X224268Y294661
X224268Y284661
X204426Y284661
X204426Y294661
X204426Y304661
X184426Y304661
X184426Y294661
X184426Y284661
X164583Y284661
X164583Y294661
X164583Y304661
X144583Y304661
X144583Y294661
X144583Y284661
X124741Y284661
X124741Y294661
X124741Y304661
X104741Y304661
X104741Y294661
X104741Y284661
X104741Y324661
X124741Y324661
X144583Y324661
X164583Y324661
X184426Y324661
X204426Y324661
X224268Y324661
X244268Y324661
X264111Y324661
X284111Y324661
X303953Y324661
X323953Y324661
X343796Y324661
X363796Y324661
X383638Y324661
X403638Y324661
X403638Y357161
X403638Y367161
X403638Y377161
X383638Y377161
X383638Y367161
X383638Y357161
X363796Y357161
X363796Y367161
X363796Y377161
X343796Y377161
X343796Y367161
X343796Y357161
X323953Y357161
X323953Y367161
X323953Y377161
X303953Y377161
X303953Y367161
X303953Y357161
X284111Y357161
X284111Y367161
X284111Y377161
X264111Y377161
X264111Y367161
X264111Y357161
X244268Y357161
X244268Y367161
X244268Y377161
X224268Y377161
X224268Y367161
X224268Y357161
X204426Y357161
X204426Y367161
X204426Y377161
X184426Y377161
X184426Y367161
X184426Y357161
X164583Y357161
X164583Y367161
X164583Y377161
X144583Y377161
X144583Y367161
X144583Y357161
X124741Y357161
X124741Y367161
X124741Y377161
X104741Y377161
X104741Y367161
X104741Y357161
X104741Y397161
X124741Y397161
X144583Y397161
X164583Y397161
X184426Y397161
X204426Y397161
X224268Y397161
X244268Y397161
X264111Y397161
X284111Y397161
X303953Y397161
X323953Y397161
X343796Y397161
X363796Y397161
X383638Y397161
X403638Y397161
T03
X539337Y293175
X539337Y283333
X539337Y273490
X539337Y263648
X403481Y106630
X393638Y106630
X383796Y106630
X363638Y106630
X353796Y106630
X343953Y106630
X323796Y106630
X313953Y106630
X304111Y106630
X283953Y106630
X274111Y106630
X264268Y106630
X244111Y106630
X234268Y106630
X224426Y106630
X204268Y106630
X194426Y106630
X184583Y106630
X164426Y106630
X154583Y106630
X144741Y106630
X124583Y106630
X114741Y106630
X104898Y106630
X89209Y139661
X89209Y149504
X89209Y159346
X89209Y212161
X89209Y222004
X89209Y231846
X86709Y284661
X86709Y294504
X86709Y304346
X86709Y357161
X86709Y367004
X86709Y376846
T04
X474357Y125341
X484357Y125341
T05
X488087Y99819
X468087Y99819
T06
X74583Y95567
X74583Y410528
X547024Y410528
X547024Y95567
M30
