%
M48
M72
T01C0.01181
T02C0.03150
T03C0.03543
T04C0.03937
T05C0.06299
T06C0.12598
%
T01
X407999Y186856
X410459Y184396
X410459Y189317
X407999Y191778
X410459Y194238
X407999Y196699
X410459Y199159
X443678Y186856
X450528Y192201
X477733Y179031
X480489Y176276
X477733Y173520
X480489Y170764
X490843Y159986
X510410Y162890
X512772Y165646
X510410Y168402
X512772Y159740
X520646Y184150
X520646Y199110
X512772Y232575
X510410Y235331
X512772Y238087
X510410Y240843
X490843Y232427
X477733Y243205
X480095Y245961
X477733Y248717
X480095Y251472
X483757Y268648
X491237Y268648
X520253Y271945
X524977Y279819
X520253Y256591
X512379Y305016
X510804Y308165
X512379Y310921
X510804Y313677
X490843Y304868
X478127Y315646
X480095Y318402
X478127Y321157
X480095Y323913
X483757Y340695
X487694Y340695
X520646Y343598
X520646Y329031
X512772Y376276
X510410Y379425
X512772Y382181
X510410Y384937
X520646Y400291
X516434Y409199
X520646Y414858
X491237Y411955
X487300Y411955
X483757Y411955
X477733Y395173
X479701Y392417
X477733Y389661
X479701Y386906
X490843Y376128
X449554Y407821
X443678Y403392
X410459Y402161
X407999Y404622
X410459Y407083
X407999Y409543
X410459Y412004
X407999Y414465
X410459Y416925
X409229Y344337
X406768Y341876
X409229Y339415
X406768Y336955
X409229Y334494
X406768Y332033
X409229Y329573
X443678Y332033
X450528Y337201
X409229Y271748
X406768Y269287
X409229Y266827
X406768Y264366
X409229Y261906
X406768Y259445
X409229Y256984
X443678Y259445
X450528Y264701
X483757Y196207
X521434Y131000
X524583Y128244
X521434Y125488
X524583Y122732
X527733Y125488
X527733Y131000
X452654Y128884
X442694Y117220
X444662Y113283
X440725Y113283
X442694Y109346
X444662Y105409
X440725Y105409
X442694Y101472
X444662Y97535
X440725Y97535
X442694Y93598
T02
X403638Y139661
X403638Y149661
X403638Y159661
X383638Y159661
X383638Y149661
X383638Y139661
X363796Y139661
X363796Y149661
X363796Y159661
X343796Y159661
X343796Y149661
X343796Y139661
X323953Y139661
X323953Y149661
X323953Y159661
X303953Y159661
X303953Y149661
X303953Y139661
X284111Y139661
X284111Y149661
X284111Y159661
X264111Y159661
X264111Y149661
X264111Y139661
X244268Y139661
X244268Y149661
X244268Y159661
X224268Y159661
X224268Y149661
X224268Y139661
X204426Y139661
X204426Y149661
X204426Y159661
X184426Y159661
X184426Y149661
X184426Y139661
X164583Y139661
X164583Y149661
X164583Y159661
X144583Y159661
X144583Y149661
X144583Y139661
X124741Y139661
X124741Y149661
X124741Y159661
X104741Y159661
X104741Y149661
X104741Y139661
X104741Y179661
X124741Y179661
X144583Y179661
X164583Y179661
X184426Y179661
X204426Y179661
X224268Y179661
X244268Y179661
X264111Y179661
X284111Y179661
X303953Y179661
X323953Y179661
X343796Y179661
X363796Y179661
X383638Y179661
X403638Y179661
X403638Y212161
X403638Y222161
X403638Y232161
X383638Y232161
X383638Y222161
X383638Y212161
X363796Y212161
X363796Y222161
X363796Y232161
X343796Y232161
X343796Y222161
X343796Y212161
X323953Y212161
X323953Y222161
X323953Y232161
X303953Y232161
X303953Y222161
X303953Y212161
X284111Y212161
X284111Y222161
X284111Y232161
X264111Y232161
X264111Y222161
X264111Y212161
X244268Y212161
X244268Y222161
X244268Y232161
X224268Y232161
X224268Y222161
X224268Y212161
X204426Y212161
X204426Y222161
X204426Y232161
X184426Y232161
X184426Y222161
X184426Y212161
X164583Y212161
X164583Y222161
X164583Y232161
X144583Y232161
X144583Y222161
X144583Y212161
X124741Y212161
X124741Y222161
X124741Y232161
X104741Y232161
X104741Y222161
X104741Y212161
X104741Y252161
X124741Y252161
X144583Y252161
X164583Y252161
X184426Y252161
X204426Y252161
X224268Y252161
X244268Y252161
X264111Y252161
X284111Y252161
X303953Y252161
X323953Y252161
X343796Y252161
X363796Y252161
X383638Y252161
X403638Y252161
X403638Y284661
X403638Y294661
X403638Y304661
X383638Y304661
X383638Y294661
X383638Y284661
X363796Y284661
X363796Y294661
X363796Y304661
X343796Y304661
X343796Y294661
X343796Y284661
X323953Y284661
X323953Y294661
X323953Y304661
X303953Y304661
X303953Y294661
X303953Y284661
X284111Y284661
X284111Y294661
X284111Y304661
X264111Y304661
X264111Y294661
X264111Y284661
X244268Y284661
X244268Y294661
X244268Y304661
X224268Y304661
X224268Y294661
X224268Y284661
X204426Y284661
X204426Y294661
X204426Y304661
X184426Y304661
X184426Y294661
X184426Y284661
X164583Y284661
X164583Y294661
X164583Y304661
X144583Y304661
X144583Y294661
X144583Y284661
X124741Y284661
X124741Y294661
X124741Y304661
X104741Y304661
X104741Y294661
X104741Y284661
X104741Y324661
X124741Y324661
X144583Y324661
X164583Y324661
X184426Y324661
X204426Y324661
X224268Y324661
X244268Y324661
X264111Y324661
X284111Y324661
X303953Y324661
X323953Y324661
X343796Y324661
X363796Y324661
X383638Y324661
X403638Y324661
X403638Y357161
X403638Y367161
X403638Y377161
X383638Y377161
X383638Y367161
X383638Y357161
X363796Y357161
X363796Y367161
X363796Y377161
X343796Y377161
X343796Y367161
X343796Y357161
X323953Y357161
X323953Y367161
X323953Y377161
X303953Y377161
X303953Y367161
X303953Y357161
X284111Y357161
X284111Y367161
X284111Y377161
X264111Y377161
X264111Y367161
X264111Y357161
X244268Y357161
X244268Y367161
X244268Y377161
X224268Y377161
X224268Y367161
X224268Y357161
X204426Y357161
X204426Y367161
X204426Y377161
X184426Y377161
X184426Y367161
X184426Y357161
X164583Y357161
X164583Y367161
X164583Y377161
X144583Y377161
X144583Y367161
X144583Y357161
X124741Y357161
X124741Y367161
X124741Y377161
X104741Y377161
X104741Y367161
X104741Y357161
X104741Y397161
X124741Y397161
X144583Y397161
X164583Y397161
X184426Y397161
X204426Y397161
X224268Y397161
X244268Y397161
X264111Y397161
X284111Y397161
X303953Y397161
X323953Y397161
X343796Y397161
X363796Y397161
X383638Y397161
X403638Y397161
T03
X539337Y293175
X539337Y283333
X539337Y273490
X539337Y263648
X403481Y109091
X393638Y109091
X383796Y109091
X363638Y109091
X353796Y109091
X343953Y109091
X323796Y109091
X313953Y109091
X304111Y109091
X283953Y109091
X274111Y109091
X264268Y109091
X244111Y109091
X234268Y109091
X224426Y109091
X204268Y109091
X194426Y109091
X184583Y109091
X164426Y109091
X154583Y109091
X144741Y109091
X124583Y109091
X114741Y109091
X104898Y109091
X89209Y139661
X89209Y149504
X89209Y159346
X89209Y212161
X89209Y222004
X89209Y231846
X89209Y284661
X89209Y294504
X89209Y304346
X89209Y357161
X89209Y367004
X89209Y376846
T04
X472388Y123372
X482388Y123372
T05
X488087Y99819
X468087Y99819
T06
X74583Y95567
X74583Y410528
X547024Y410528
X547024Y95567
M30
