G75*
%MOIN*%
%OFA0B0*%
%FSLAX25Y25*%
%IPPOS*%
%LPD*%
%AMOC8*
5,1,8,0,0,1.08239X$1,22.5*
%
%ADD10C,0.13398*%
%ADD11C,0.05800*%
%ADD12R,0.06706X0.06706*%
%ADD13C,0.06706*%
%ADD14C,0.10800*%
%ADD15C,0.10249*%
%ADD16OC8,0.06706*%
D10*
X0074583Y0095567D03*
X0074583Y0410528D03*
X0547024Y0410528D03*
X0547024Y0095567D03*
D11*
X0403638Y0139661D03*
X0403638Y0149661D03*
X0403638Y0159661D03*
X0383638Y0159661D03*
X0383638Y0149661D03*
X0383638Y0139661D03*
X0363796Y0139661D03*
X0363796Y0149661D03*
X0363796Y0159661D03*
X0343796Y0159661D03*
X0343796Y0149661D03*
X0343796Y0139661D03*
X0323953Y0139661D03*
X0323953Y0149661D03*
X0323953Y0159661D03*
X0303953Y0159661D03*
X0303953Y0149661D03*
X0303953Y0139661D03*
X0284111Y0139661D03*
X0284111Y0149661D03*
X0284111Y0159661D03*
X0264111Y0159661D03*
X0264111Y0149661D03*
X0264111Y0139661D03*
X0244268Y0139661D03*
X0244268Y0149661D03*
X0244268Y0159661D03*
X0224268Y0159661D03*
X0224268Y0149661D03*
X0224268Y0139661D03*
X0204426Y0139661D03*
X0204426Y0149661D03*
X0204426Y0159661D03*
X0184426Y0159661D03*
X0184426Y0149661D03*
X0184426Y0139661D03*
X0164583Y0139661D03*
X0164583Y0149661D03*
X0164583Y0159661D03*
X0144583Y0159661D03*
X0144583Y0149661D03*
X0144583Y0139661D03*
X0124741Y0139661D03*
X0124741Y0149661D03*
X0124741Y0159661D03*
X0104741Y0159661D03*
X0104741Y0149661D03*
X0104741Y0139661D03*
X0104741Y0179661D03*
X0124741Y0179661D03*
X0144583Y0179661D03*
X0164583Y0179661D03*
X0184426Y0179661D03*
X0204426Y0179661D03*
X0224268Y0179661D03*
X0244268Y0179661D03*
X0264111Y0179661D03*
X0284111Y0179661D03*
X0303953Y0179661D03*
X0323953Y0179661D03*
X0343796Y0179661D03*
X0363796Y0179661D03*
X0383638Y0179661D03*
X0403638Y0179661D03*
X0403638Y0212161D03*
X0403638Y0222161D03*
X0403638Y0232161D03*
X0383638Y0232161D03*
X0383638Y0222161D03*
X0383638Y0212161D03*
X0363796Y0212161D03*
X0363796Y0222161D03*
X0363796Y0232161D03*
X0343796Y0232161D03*
X0343796Y0222161D03*
X0343796Y0212161D03*
X0323953Y0212161D03*
X0323953Y0222161D03*
X0323953Y0232161D03*
X0303953Y0232161D03*
X0303953Y0222161D03*
X0303953Y0212161D03*
X0284111Y0212161D03*
X0284111Y0222161D03*
X0284111Y0232161D03*
X0264111Y0232161D03*
X0264111Y0222161D03*
X0264111Y0212161D03*
X0244268Y0212161D03*
X0244268Y0222161D03*
X0244268Y0232161D03*
X0224268Y0232161D03*
X0224268Y0222161D03*
X0224268Y0212161D03*
X0204426Y0212161D03*
X0204426Y0222161D03*
X0204426Y0232161D03*
X0184426Y0232161D03*
X0184426Y0222161D03*
X0184426Y0212161D03*
X0164583Y0212161D03*
X0164583Y0222161D03*
X0164583Y0232161D03*
X0144583Y0232161D03*
X0144583Y0222161D03*
X0144583Y0212161D03*
X0124741Y0212161D03*
X0124741Y0222161D03*
X0124741Y0232161D03*
X0104741Y0232161D03*
X0104741Y0222161D03*
X0104741Y0212161D03*
X0104741Y0252161D03*
X0124741Y0252161D03*
X0144583Y0252161D03*
X0164583Y0252161D03*
X0184426Y0252161D03*
X0204426Y0252161D03*
X0224268Y0252161D03*
X0244268Y0252161D03*
X0264111Y0252161D03*
X0284111Y0252161D03*
X0303953Y0252161D03*
X0323953Y0252161D03*
X0343796Y0252161D03*
X0363796Y0252161D03*
X0383638Y0252161D03*
X0403638Y0252161D03*
X0403638Y0284661D03*
X0403638Y0294661D03*
X0403638Y0304661D03*
X0383638Y0304661D03*
X0383638Y0294661D03*
X0383638Y0284661D03*
X0363796Y0284661D03*
X0363796Y0294661D03*
X0363796Y0304661D03*
X0343796Y0304661D03*
X0343796Y0294661D03*
X0343796Y0284661D03*
X0323953Y0284661D03*
X0323953Y0294661D03*
X0323953Y0304661D03*
X0303953Y0304661D03*
X0303953Y0294661D03*
X0303953Y0284661D03*
X0284111Y0284661D03*
X0284111Y0294661D03*
X0284111Y0304661D03*
X0264111Y0304661D03*
X0264111Y0294661D03*
X0264111Y0284661D03*
X0244268Y0284661D03*
X0244268Y0294661D03*
X0244268Y0304661D03*
X0224268Y0304661D03*
X0224268Y0294661D03*
X0224268Y0284661D03*
X0204426Y0284661D03*
X0204426Y0294661D03*
X0204426Y0304661D03*
X0184426Y0304661D03*
X0184426Y0294661D03*
X0184426Y0284661D03*
X0164583Y0284661D03*
X0164583Y0294661D03*
X0164583Y0304661D03*
X0144583Y0304661D03*
X0144583Y0294661D03*
X0144583Y0284661D03*
X0124741Y0284661D03*
X0124741Y0294661D03*
X0124741Y0304661D03*
X0104741Y0304661D03*
X0104741Y0294661D03*
X0104741Y0284661D03*
X0104741Y0324661D03*
X0124741Y0324661D03*
X0144583Y0324661D03*
X0164583Y0324661D03*
X0184426Y0324661D03*
X0204426Y0324661D03*
X0224268Y0324661D03*
X0244268Y0324661D03*
X0264111Y0324661D03*
X0284111Y0324661D03*
X0303953Y0324661D03*
X0323953Y0324661D03*
X0343796Y0324661D03*
X0363796Y0324661D03*
X0383638Y0324661D03*
X0403638Y0324661D03*
X0403638Y0357161D03*
X0403638Y0367161D03*
X0403638Y0377161D03*
X0383638Y0377161D03*
X0383638Y0367161D03*
X0383638Y0357161D03*
X0363796Y0357161D03*
X0363796Y0367161D03*
X0363796Y0377161D03*
X0343796Y0377161D03*
X0343796Y0367161D03*
X0343796Y0357161D03*
X0323953Y0357161D03*
X0323953Y0367161D03*
X0323953Y0377161D03*
X0303953Y0377161D03*
X0303953Y0367161D03*
X0303953Y0357161D03*
X0284111Y0357161D03*
X0284111Y0367161D03*
X0284111Y0377161D03*
X0264111Y0377161D03*
X0264111Y0367161D03*
X0264111Y0357161D03*
X0244268Y0357161D03*
X0244268Y0367161D03*
X0244268Y0377161D03*
X0224268Y0377161D03*
X0224268Y0367161D03*
X0224268Y0357161D03*
X0204426Y0357161D03*
X0204426Y0367161D03*
X0204426Y0377161D03*
X0184426Y0377161D03*
X0184426Y0367161D03*
X0184426Y0357161D03*
X0164583Y0357161D03*
X0164583Y0367161D03*
X0164583Y0377161D03*
X0144583Y0377161D03*
X0144583Y0367161D03*
X0144583Y0357161D03*
X0124741Y0357161D03*
X0124741Y0367161D03*
X0124741Y0377161D03*
X0104741Y0377161D03*
X0104741Y0367161D03*
X0104741Y0357161D03*
X0104741Y0397161D03*
X0124741Y0397161D03*
X0144583Y0397161D03*
X0164583Y0397161D03*
X0184426Y0397161D03*
X0204426Y0397161D03*
X0224268Y0397161D03*
X0244268Y0397161D03*
X0264111Y0397161D03*
X0284111Y0397161D03*
X0303953Y0397161D03*
X0323953Y0397161D03*
X0343796Y0397161D03*
X0363796Y0397161D03*
X0383638Y0397161D03*
X0403638Y0397161D03*
D12*
X0539337Y0263648D03*
X0383796Y0109091D03*
X0343953Y0109091D03*
X0304111Y0109091D03*
X0264268Y0109091D03*
X0224426Y0109091D03*
X0184583Y0109091D03*
X0144741Y0109091D03*
X0104898Y0109091D03*
X0089209Y0159346D03*
X0089209Y0231846D03*
X0089209Y0304346D03*
X0089209Y0376846D03*
D13*
X0089209Y0367004D03*
X0089209Y0357161D03*
X0089209Y0294504D03*
X0089209Y0284661D03*
X0089209Y0222004D03*
X0089209Y0212161D03*
X0089209Y0149504D03*
X0089209Y0139661D03*
X0114741Y0109091D03*
X0124583Y0109091D03*
X0154583Y0109091D03*
X0164426Y0109091D03*
X0194426Y0109091D03*
X0204268Y0109091D03*
X0234268Y0109091D03*
X0244111Y0109091D03*
X0274111Y0109091D03*
X0283953Y0109091D03*
X0313953Y0109091D03*
X0323796Y0109091D03*
X0353796Y0109091D03*
X0363638Y0109091D03*
X0393638Y0109091D03*
X0403481Y0109091D03*
X0539337Y0273490D03*
X0539337Y0283333D03*
X0539337Y0293175D03*
D14*
X0468087Y0099819D03*
D15*
X0488087Y0099819D03*
D16*
X0482388Y0123372D03*
X0472388Y0123372D03*
M02*
