G75*
%MOIN*%
%OFA0B0*%
%FSLAX25Y25*%
%IPPOS*%
%LPD*%
%AMOC8*
5,1,8,0,0,1.08239X$1,22.5*
%
%ADD10C,0.13398*%
%ADD11C,0.05800*%
%ADD12R,0.07887X0.02375*%
%ADD13R,0.06312X0.03162*%
%ADD14R,0.06312X0.02375*%
%ADD15R,0.03150X0.03150*%
%ADD16R,0.01981X0.03950*%
%ADD17R,0.06706X0.06706*%
%ADD18C,0.06706*%
%ADD19C,0.10800*%
%ADD20C,0.10249*%
%ADD21OC8,0.06706*%
%ADD22R,0.04331X0.04331*%
D10*
X0074583Y0095567D03*
X0074583Y0410528D03*
X0547024Y0410528D03*
X0547024Y0095567D03*
D11*
X0403638Y0139661D03*
X0403638Y0149661D03*
X0403638Y0159661D03*
X0383638Y0159661D03*
X0383638Y0149661D03*
X0383638Y0139661D03*
X0363796Y0139661D03*
X0363796Y0149661D03*
X0363796Y0159661D03*
X0343796Y0159661D03*
X0343796Y0149661D03*
X0343796Y0139661D03*
X0323953Y0139661D03*
X0323953Y0149661D03*
X0323953Y0159661D03*
X0303953Y0159661D03*
X0303953Y0149661D03*
X0303953Y0139661D03*
X0284111Y0139661D03*
X0284111Y0149661D03*
X0284111Y0159661D03*
X0264111Y0159661D03*
X0264111Y0149661D03*
X0264111Y0139661D03*
X0244268Y0139661D03*
X0244268Y0149661D03*
X0244268Y0159661D03*
X0224268Y0159661D03*
X0224268Y0149661D03*
X0224268Y0139661D03*
X0204426Y0139661D03*
X0204426Y0149661D03*
X0204426Y0159661D03*
X0184426Y0159661D03*
X0184426Y0149661D03*
X0184426Y0139661D03*
X0164583Y0139661D03*
X0164583Y0149661D03*
X0164583Y0159661D03*
X0144583Y0159661D03*
X0144583Y0149661D03*
X0144583Y0139661D03*
X0124741Y0139661D03*
X0124741Y0149661D03*
X0124741Y0159661D03*
X0104741Y0159661D03*
X0104741Y0149661D03*
X0104741Y0139661D03*
X0104741Y0179661D03*
X0124741Y0179661D03*
X0144583Y0179661D03*
X0164583Y0179661D03*
X0184426Y0179661D03*
X0204426Y0179661D03*
X0224268Y0179661D03*
X0244268Y0179661D03*
X0264111Y0179661D03*
X0284111Y0179661D03*
X0303953Y0179661D03*
X0323953Y0179661D03*
X0343796Y0179661D03*
X0363796Y0179661D03*
X0383638Y0179661D03*
X0403638Y0179661D03*
X0403638Y0212161D03*
X0403638Y0222161D03*
X0403638Y0232161D03*
X0383638Y0232161D03*
X0383638Y0222161D03*
X0383638Y0212161D03*
X0363796Y0212161D03*
X0363796Y0222161D03*
X0363796Y0232161D03*
X0343796Y0232161D03*
X0343796Y0222161D03*
X0343796Y0212161D03*
X0323953Y0212161D03*
X0323953Y0222161D03*
X0323953Y0232161D03*
X0303953Y0232161D03*
X0303953Y0222161D03*
X0303953Y0212161D03*
X0284111Y0212161D03*
X0284111Y0222161D03*
X0284111Y0232161D03*
X0264111Y0232161D03*
X0264111Y0222161D03*
X0264111Y0212161D03*
X0244268Y0212161D03*
X0244268Y0222161D03*
X0244268Y0232161D03*
X0224268Y0232161D03*
X0224268Y0222161D03*
X0224268Y0212161D03*
X0204426Y0212161D03*
X0204426Y0222161D03*
X0204426Y0232161D03*
X0184426Y0232161D03*
X0184426Y0222161D03*
X0184426Y0212161D03*
X0164583Y0212161D03*
X0164583Y0222161D03*
X0164583Y0232161D03*
X0144583Y0232161D03*
X0144583Y0222161D03*
X0144583Y0212161D03*
X0124741Y0212161D03*
X0124741Y0222161D03*
X0124741Y0232161D03*
X0104741Y0232161D03*
X0104741Y0222161D03*
X0104741Y0212161D03*
X0104741Y0252161D03*
X0124741Y0252161D03*
X0144583Y0252161D03*
X0164583Y0252161D03*
X0184426Y0252161D03*
X0204426Y0252161D03*
X0224268Y0252161D03*
X0244268Y0252161D03*
X0264111Y0252161D03*
X0284111Y0252161D03*
X0303953Y0252161D03*
X0323953Y0252161D03*
X0343796Y0252161D03*
X0363796Y0252161D03*
X0383638Y0252161D03*
X0403638Y0252161D03*
X0403638Y0284661D03*
X0403638Y0294661D03*
X0403638Y0304661D03*
X0383638Y0304661D03*
X0383638Y0294661D03*
X0383638Y0284661D03*
X0363796Y0284661D03*
X0363796Y0294661D03*
X0363796Y0304661D03*
X0343796Y0304661D03*
X0343796Y0294661D03*
X0343796Y0284661D03*
X0323953Y0284661D03*
X0323953Y0294661D03*
X0323953Y0304661D03*
X0303953Y0304661D03*
X0303953Y0294661D03*
X0303953Y0284661D03*
X0284111Y0284661D03*
X0284111Y0294661D03*
X0284111Y0304661D03*
X0264111Y0304661D03*
X0264111Y0294661D03*
X0264111Y0284661D03*
X0244268Y0284661D03*
X0244268Y0294661D03*
X0244268Y0304661D03*
X0224268Y0304661D03*
X0224268Y0294661D03*
X0224268Y0284661D03*
X0204426Y0284661D03*
X0204426Y0294661D03*
X0204426Y0304661D03*
X0184426Y0304661D03*
X0184426Y0294661D03*
X0184426Y0284661D03*
X0164583Y0284661D03*
X0164583Y0294661D03*
X0164583Y0304661D03*
X0144583Y0304661D03*
X0144583Y0294661D03*
X0144583Y0284661D03*
X0124741Y0284661D03*
X0124741Y0294661D03*
X0124741Y0304661D03*
X0104741Y0304661D03*
X0104741Y0294661D03*
X0104741Y0284661D03*
X0104741Y0324661D03*
X0124741Y0324661D03*
X0144583Y0324661D03*
X0164583Y0324661D03*
X0184426Y0324661D03*
X0204426Y0324661D03*
X0224268Y0324661D03*
X0244268Y0324661D03*
X0264111Y0324661D03*
X0284111Y0324661D03*
X0303953Y0324661D03*
X0323953Y0324661D03*
X0343796Y0324661D03*
X0363796Y0324661D03*
X0383638Y0324661D03*
X0403638Y0324661D03*
X0403638Y0357161D03*
X0403638Y0367161D03*
X0403638Y0377161D03*
X0383638Y0377161D03*
X0383638Y0367161D03*
X0383638Y0357161D03*
X0363796Y0357161D03*
X0363796Y0367161D03*
X0363796Y0377161D03*
X0343796Y0377161D03*
X0343796Y0367161D03*
X0343796Y0357161D03*
X0323953Y0357161D03*
X0323953Y0367161D03*
X0323953Y0377161D03*
X0303953Y0377161D03*
X0303953Y0367161D03*
X0303953Y0357161D03*
X0284111Y0357161D03*
X0284111Y0367161D03*
X0284111Y0377161D03*
X0264111Y0377161D03*
X0264111Y0367161D03*
X0264111Y0357161D03*
X0244268Y0357161D03*
X0244268Y0367161D03*
X0244268Y0377161D03*
X0224268Y0377161D03*
X0224268Y0367161D03*
X0224268Y0357161D03*
X0204426Y0357161D03*
X0204426Y0367161D03*
X0204426Y0377161D03*
X0184426Y0377161D03*
X0184426Y0367161D03*
X0184426Y0357161D03*
X0164583Y0357161D03*
X0164583Y0367161D03*
X0164583Y0377161D03*
X0144583Y0377161D03*
X0144583Y0367161D03*
X0144583Y0357161D03*
X0124741Y0357161D03*
X0124741Y0367161D03*
X0124741Y0377161D03*
X0104741Y0377161D03*
X0104741Y0367161D03*
X0104741Y0357161D03*
X0104741Y0397161D03*
X0124741Y0397161D03*
X0144583Y0397161D03*
X0164583Y0397161D03*
X0184426Y0397161D03*
X0204426Y0397161D03*
X0224268Y0397161D03*
X0244268Y0397161D03*
X0264111Y0397161D03*
X0284111Y0397161D03*
X0303953Y0397161D03*
X0323953Y0397161D03*
X0343796Y0397161D03*
X0363796Y0397161D03*
X0383638Y0397161D03*
X0403638Y0397161D03*
D12*
X0446050Y0397398D03*
X0446050Y0394839D03*
X0446050Y0392280D03*
X0446050Y0389720D03*
X0446050Y0387161D03*
X0446050Y0384602D03*
X0446050Y0382043D03*
X0446050Y0379484D03*
X0446050Y0376925D03*
X0472625Y0376925D03*
X0472625Y0379484D03*
X0472625Y0382043D03*
X0472625Y0384602D03*
X0472625Y0387161D03*
X0472625Y0389720D03*
X0472625Y0392280D03*
X0472625Y0394839D03*
X0472625Y0397398D03*
X0472625Y0326148D03*
X0472625Y0323589D03*
X0472625Y0321030D03*
X0472625Y0318470D03*
X0472625Y0315911D03*
X0472625Y0313352D03*
X0472625Y0310793D03*
X0472625Y0308234D03*
X0472625Y0305675D03*
X0446050Y0305675D03*
X0446050Y0308234D03*
X0446050Y0310793D03*
X0446050Y0313352D03*
X0446050Y0315911D03*
X0446050Y0318470D03*
X0446050Y0321030D03*
X0446050Y0323589D03*
X0446050Y0326148D03*
X0446050Y0253648D03*
X0446050Y0251089D03*
X0446050Y0248530D03*
X0446050Y0245970D03*
X0446050Y0243411D03*
X0446050Y0240852D03*
X0446050Y0238293D03*
X0446050Y0235734D03*
X0446050Y0233175D03*
X0472625Y0233175D03*
X0472625Y0235734D03*
X0472625Y0238293D03*
X0472625Y0240852D03*
X0472625Y0243411D03*
X0472625Y0245970D03*
X0472625Y0248530D03*
X0472625Y0251089D03*
X0472625Y0253648D03*
X0472625Y0181148D03*
X0472625Y0178589D03*
X0472625Y0176030D03*
X0472625Y0173470D03*
X0472625Y0170911D03*
X0472625Y0168352D03*
X0472625Y0165793D03*
X0472625Y0163234D03*
X0472625Y0160675D03*
X0446050Y0160675D03*
X0446050Y0163234D03*
X0446050Y0165793D03*
X0446050Y0168352D03*
X0446050Y0170911D03*
X0446050Y0173470D03*
X0446050Y0176030D03*
X0446050Y0178589D03*
X0446050Y0181148D03*
D13*
X0495558Y0179209D03*
X0495558Y0160114D03*
X0516818Y0160114D03*
X0516818Y0179209D03*
X0516818Y0232614D03*
X0495558Y0232614D03*
X0495558Y0251709D03*
X0516818Y0251709D03*
X0516818Y0305114D03*
X0495558Y0305114D03*
X0495558Y0324209D03*
X0516818Y0324209D03*
X0516818Y0376364D03*
X0516818Y0395459D03*
X0495558Y0395459D03*
X0495558Y0376364D03*
D14*
X0495558Y0379514D03*
X0495558Y0382073D03*
X0495558Y0384632D03*
X0495558Y0387191D03*
X0495558Y0389750D03*
X0495558Y0392309D03*
X0516818Y0392309D03*
X0516818Y0389750D03*
X0516818Y0387191D03*
X0516818Y0384632D03*
X0516818Y0382073D03*
X0516818Y0379514D03*
X0516818Y0321059D03*
X0516818Y0318500D03*
X0516818Y0315941D03*
X0516818Y0313382D03*
X0516818Y0310823D03*
X0516818Y0308264D03*
X0495558Y0308264D03*
X0495558Y0310823D03*
X0495558Y0313382D03*
X0495558Y0315941D03*
X0495558Y0318500D03*
X0495558Y0321059D03*
X0495558Y0248559D03*
X0495558Y0246000D03*
X0495558Y0243441D03*
X0495558Y0240882D03*
X0495558Y0238323D03*
X0495558Y0235764D03*
X0516818Y0235764D03*
X0516818Y0238323D03*
X0516818Y0240882D03*
X0516818Y0243441D03*
X0516818Y0246000D03*
X0516818Y0248559D03*
X0516818Y0176059D03*
X0516818Y0173500D03*
X0516818Y0170941D03*
X0516818Y0168382D03*
X0516818Y0165823D03*
X0516818Y0163264D03*
X0495558Y0163264D03*
X0495558Y0165823D03*
X0495558Y0168382D03*
X0495558Y0170941D03*
X0495558Y0173500D03*
X0495558Y0176059D03*
D15*
X0494967Y0187535D03*
X0491217Y0187535D03*
X0487467Y0187535D03*
X0483717Y0187535D03*
X0479967Y0187535D03*
X0479967Y0192260D03*
X0483717Y0192260D03*
X0487467Y0192260D03*
X0491217Y0192260D03*
X0494967Y0192260D03*
X0516857Y0188805D03*
X0516857Y0184081D03*
X0446837Y0187299D03*
X0446837Y0192024D03*
X0516857Y0256581D03*
X0516857Y0261305D03*
X0494967Y0259917D03*
X0491217Y0259917D03*
X0487467Y0259917D03*
X0483717Y0259917D03*
X0479967Y0259917D03*
X0479967Y0264642D03*
X0483717Y0264642D03*
X0487467Y0264642D03*
X0491217Y0264642D03*
X0494967Y0264642D03*
X0446837Y0264524D03*
X0446837Y0259799D03*
X0446837Y0332299D03*
X0446837Y0337024D03*
X0479967Y0337024D03*
X0483717Y0337024D03*
X0487467Y0337024D03*
X0491217Y0337024D03*
X0494967Y0337024D03*
X0494967Y0332299D03*
X0491217Y0332299D03*
X0487467Y0332299D03*
X0483717Y0332299D03*
X0479967Y0332299D03*
X0516857Y0333805D03*
X0516857Y0329081D03*
X0516690Y0400528D03*
X0516690Y0405252D03*
X0494967Y0403569D03*
X0491217Y0403569D03*
X0487467Y0403569D03*
X0483717Y0403569D03*
X0479967Y0403569D03*
X0479967Y0408293D03*
X0483717Y0408293D03*
X0487467Y0408293D03*
X0491217Y0408293D03*
X0494967Y0408293D03*
X0446631Y0407860D03*
X0446631Y0403136D03*
D16*
X0483717Y0405931D03*
X0487467Y0405931D03*
X0491217Y0405931D03*
X0494967Y0405931D03*
X0494967Y0334661D03*
X0491217Y0334661D03*
X0487467Y0334661D03*
X0483717Y0334661D03*
X0483717Y0262280D03*
X0487467Y0262280D03*
X0491217Y0262280D03*
X0494967Y0262280D03*
X0494967Y0189898D03*
X0491217Y0189898D03*
X0487467Y0189898D03*
X0483717Y0189898D03*
D17*
X0539337Y0263648D03*
X0383796Y0109091D03*
X0343953Y0109091D03*
X0304111Y0109091D03*
X0264268Y0109091D03*
X0224426Y0109091D03*
X0184583Y0109091D03*
X0144741Y0109091D03*
X0104898Y0109091D03*
X0089209Y0159346D03*
X0089209Y0231846D03*
X0089209Y0304346D03*
X0089209Y0376846D03*
D18*
X0089209Y0367004D03*
X0089209Y0357161D03*
X0089209Y0294504D03*
X0089209Y0284661D03*
X0089209Y0222004D03*
X0089209Y0212161D03*
X0089209Y0149504D03*
X0089209Y0139661D03*
X0114741Y0109091D03*
X0124583Y0109091D03*
X0154583Y0109091D03*
X0164426Y0109091D03*
X0194426Y0109091D03*
X0204268Y0109091D03*
X0234268Y0109091D03*
X0244111Y0109091D03*
X0274111Y0109091D03*
X0283953Y0109091D03*
X0313953Y0109091D03*
X0323796Y0109091D03*
X0353796Y0109091D03*
X0363638Y0109091D03*
X0393638Y0109091D03*
X0403481Y0109091D03*
X0539337Y0273490D03*
X0539337Y0283333D03*
X0539337Y0293175D03*
D19*
X0468087Y0099819D03*
D20*
X0488087Y0099819D03*
D21*
X0482388Y0123372D03*
X0472388Y0123372D03*
D22*
X0452536Y0124701D03*
X0452536Y0117614D03*
M02*
